<?xml version="1.0" encoding="UTF-8"?>
<svg version="1.1" xmlns="http://www.w3.org/2000/svg" width="2000" height="2000">
<path d="M0 0 C2.06477174 0.03840062 4.12826396 0.15660303 6.1875 0.3125 C7.31542969 0.39113281 8.44335938 0.46976563 9.60546875 0.55078125 C13 1 13 1 15.75 1.921875 C20.35376262 3.44908471 25.03470919 4.14630349 29.8125 4.9375 C31.88934621 5.29022746 33.96616898 5.64309295 36.04296875 5.99609375 C37.06052246 6.16737793 38.07807617 6.33866211 39.12646484 6.51513672 C49.33297452 8.23732263 59.51716835 10.07603149 69.6875 12 C70.50621582 12.15404297 71.32493164 12.30808594 72.16845703 12.46679688 C76.95877172 13.38032078 81.72725017 14.36825426 86.4921875 15.40625 C95.11047536 17.26650548 103.77136217 18.88133244 112.4375 20.5 C141.44162445 25.92957683 141.44162445 25.92957683 152.90625 28.5390625 C155.20166008 29.04439532 157.50475566 29.49201771 159.8125 29.9375 C164.47553097 30.8542259 169.05902197 32.00267632 173.65234375 33.21875 C176.4837107 33.87951241 179.29087903 34.42397116 182.15234375 34.9296875 C188.02320224 35.97704747 193.81895048 37.26747374 199.625 38.625 C201.28305664 39.0108728 201.28305664 39.0108728 202.97460938 39.40454102 C206.65111394 40.26396715 210.32586471 41.13050157 214 42 C214.6544812 42.15486877 215.3089624 42.30973755 215.98327637 42.46929932 C231.13686417 46.05917465 246.26747105 49.72558688 261.3125 53.75 C262.32441406 54.0193335 263.33632813 54.28866699 264.37890625 54.56616211 C270.42563045 56.20769009 276.35524682 58.07662235 282.27319336 60.13549805 C285.63141431 61.20018247 288.97813165 61.86179737 292.453125 62.41015625 C295.38115699 63.08827409 298.05889229 64.12806933 300.85888672 65.20874023 C304.33092312 66.4918497 307.87859646 67.48876251 311.4375 68.5 C317.34702272 70.18843506 323.18199674 72.01914352 329 74 C330.24483154 74.42216797 331.48966309 74.84433594 332.7722168 75.27929688 C349.26407641 80.87794426 365.7458743 86.50906182 382.16815186 92.30908203 C384.06143867 92.97755796 385.95575118 93.64312665 387.85009766 94.30859375 C394.47348487 96.65950714 400.98665526 99.17442912 407.44775391 101.94165039 C410.39839922 103.16520572 413.38375821 104.15862 416.421875 105.13671875 C426.46343295 108.49911922 436.30000126 112.46399059 446.06445312 116.55175781 C449.4154059 117.95208265 452.77224508 119.30107573 456.1796875 120.55859375 C459.23855126 121.69243148 462.18112829 122.96459201 465.125 124.375 C470.35390661 126.79779905 475.68122283 128.69454604 481.15234375 130.49609375 C485.55293269 132.09123137 489.64653664 134.30090526 493.81274414 136.41918945 C498.87532593 138.93012144 504.06095274 141.14068023 509.25 143.375 C517.02217668 146.75734676 524.70695722 150.22277333 532.25170898 154.0859375 C537.22118695 156.62981385 542.25405486 159.0136065 547.3125 161.375 C560.16396012 167.40857394 572.79738216 173.9161475 584.96875 181.234375 C587.6763758 182.81149724 590.40836917 184.31387058 593.1640625 185.8046875 C598.80982621 188.87175671 604.35196389 192.09308921 609.875 195.375 C610.83680176 195.94516846 611.79860352 196.51533691 612.78955078 197.1027832 C619.90584331 201.32999286 626.97452634 205.62333164 634 210 C635.28220814 210.7857178 636.56478111 211.57084046 637.84765625 212.35546875 C645.1024689 216.81352889 652.15442157 221.43795696 659.04248047 226.44506836 C665.07823082 230.82164059 671.29423195 234.93322255 677.80859375 238.56640625 C678.53175781 239.03949219 679.25492188 239.51257813 680 240 C680 240.66 680 241.32 680 242 C680.59095459 242.12004395 681.18190918 242.24008789 681.79077148 242.36376953 C685.35189337 243.38932856 688.10949834 245.71007874 691.0625 247.875 C691.68705078 248.32230469 692.31160156 248.76960937 692.95507812 249.23046875 C699.33045699 253.84360308 699.33045699 253.84360308 701 256 C700.6875 258.1875 700.6875 258.1875 700 260 C696.62423918 259.91534875 693.24983307 259.80304661 689.875 259.6875 C688.96234375 259.66494141 688.0496875 259.64238281 687.109375 259.61914062 C680.22779226 259.36681592 673.51978216 258.54903386 666.71484375 257.55859375 C654.73749879 255.83244262 642.76258586 255.0544709 630.6875 254.375 C627.56421565 254.194917 624.44113108 254.01238189 621.3183136 253.82437134 C619.39997235 253.7092459 617.48134012 253.59884768 615.56242371 253.4937439 C614.71255386 253.44344025 613.86268402 253.3931366 612.98706055 253.34130859 C612.23845261 253.29928314 611.48984467 253.25725769 610.71855164 253.21395874 C609 253 609 253 608 252 C595.28810256 250.43667348 582.34062414 250.88381466 569.5625 250.9375 C567.4628917 250.94252803 565.36328223 250.94708862 563.26367188 250.95117188 C558.17575168 250.96206733 553.08788919 250.97925915 548 251 C550.08310086 252.60446931 552.16647227 254.20858518 554.25 255.8125 C554.83652344 256.26431641 555.42304687 256.71613281 556.02734375 257.18164062 C556.60097656 257.62314453 557.17460938 258.06464844 557.765625 258.51953125 C558.32185547 258.94959473 558.87808594 259.3796582 559.45117188 259.82275391 C560.75234138 260.81175759 562.08396023 261.76052048 563.421875 262.69921875 C563.94265625 263.12847656 564.4634375 263.55773437 565 264 C565 264.66 565 265.32 565 266 C566.65 266.66 568.3 267.32 570 268 C570 268.66 570 269.32 570 270 C570.928125 270.4640625 570.928125 270.4640625 571.875 270.9375 C573.25 271.625 574.625 272.3125 576 273 C576 273.66 576 274.32 576 275 C576.56976562 275.26039063 577.13953125 275.52078125 577.7265625 275.7890625 C588.07264989 281.29986506 597.03529112 290.97724313 605.8972168 298.640625 C606.51636963 299.17429687 607.13552246 299.70796875 607.7734375 300.2578125 C608.33337402 300.74137207 608.89331055 301.22493164 609.47021484 301.72314453 C610.74721564 302.78901018 612.08630486 303.77991118 613.4375 304.75 C613.953125 305.1625 614.46875 305.575 615 306 C615 306.66 615 307.32 615 308 C615.70125 308.226875 616.4025 308.45375 617.125 308.6875 C620.74128535 310.33841288 623.08769976 312.2908835 626 315 C626 315.66 626 316.32 626 317 C626.54914062 317.22945312 627.09828125 317.45890625 627.6640625 317.6953125 C630.67258932 319.37566026 632.87001796 321.50727725 635.375 323.875 C639.88679773 328.09375981 644.48270341 332.18510247 649.1875 336.1875 C650.36069932 337.18877603 651.5338769 338.19007753 652.70703125 339.19140625 C653.26342285 339.66594238 653.81981445 340.14047852 654.39306641 340.62939453 C656.72722371 342.62027255 659.0583013 344.61380003 661.375 346.625 C662.08398438 347.23601562 662.79296875 347.84703125 663.5234375 348.4765625 C665 350 665 350 665 352 C665.639375 352.103125 666.27875 352.20625 666.9375 352.3125 C667.618125 352.539375 668.29875 352.76625 669 353 C669.33 353.99 669.66 354.98 670 356 C671.31403276 356.70394612 672.6520257 357.36345658 674 358 C676.75 360 676.75 360 679 362 C679 362.66 679 363.32 679 364 C679.55945312 364.24105469 680.11890625 364.48210937 680.6953125 364.73046875 C683.48153854 366.26525428 685.54264415 368.15089294 687.875 370.3125 C690.64357368 372.8534083 693.39645737 375.37929521 696.3125 377.75 C699.04023865 380.03368817 701.48546064 382.48546064 704 385 C705.15888582 386.00900682 706.32602648 387.00858824 707.5 388 C710.48990505 390.53436158 713.25900274 393.1937409 716 396 C720.78510659 400.87730518 725.60722261 405.61947497 730.7890625 410.07421875 C733.46181693 412.40225397 736.07754343 414.7896973 738.6875 417.1875 C739.18862305 417.64745361 739.68974609 418.10740723 740.20605469 418.58129883 C742.99708031 421.14705759 745.77896928 423.72237806 748.5546875 426.3046875 C749.14032471 426.84843018 749.72596191 427.39217285 750.3293457 427.95239258 C751.46243926 429.00504112 752.59386044 430.05949346 753.72338867 431.1159668 C756.07069086 433.29594528 758.32725483 435.21816989 761 437 C761 437.66 761 438.32 761 439 C761.57621094 439.2475 762.15242188 439.495 762.74609375 439.75 C765.3370806 441.18694245 767.02044807 442.85958333 769.0625 445 C771.33653856 447.37442798 773.24521929 449.16347952 776 451 C776 451.66 776 452.32 776 453 C776.86625 453.37125 776.86625 453.37125 777.75 453.75 C780.32939979 455.18299988 782.06121592 456.78424676 784 459 C784 459.66 784 460.32 784 461 C785.32 461.33 786.64 461.66 788 462 C788 462.66 788 463.32 788 464 C788.57105469 464.24234375 789.14210938 464.4846875 789.73046875 464.734375 C792.42354348 466.23619292 794.18139624 468.02426463 796.3125 470.25 C799.12557195 473.14224782 801.94749878 475.87332216 805.0625 478.4375 C806.031875 479.283125 807.00125 480.12875 808 481 C808 481.66 808 482.32 808 483 C808.99 483.33 809.98 483.66 811 484 C811 484.66 811 485.32 811 486 C811.556875 486.061875 812.11375 486.12375 812.6875 486.1875 C815.99068042 487.3480769 817.71894733 489.40213446 820 492 C820 492.66 820 493.32 820 494 C820.99 494.33 821.98 494.66 823 495 C824.71287728 496.61913773 826.37344757 498.29416215 828 500 C833.41357785 505.48640626 838.78856894 510.92860817 844.65234375 515.9375 C848.60990827 519.41436201 852.42792043 523.04186628 856.2668457 526.64868164 C859.28869849 529.48382696 862.31902954 532.30330396 865.4140625 535.05859375 C865.92799561 535.51709717 866.44192871 535.97560059 866.97143555 536.44799805 C868.35070562 537.6729185 869.73571338 538.89136955 871.12109375 540.109375 C873 542 873 542 873 544 C873.56074219 544.24363281 874.12148437 544.48726562 874.69921875 544.73828125 C881.44304163 548.4365067 886.94167932 554.87299269 892.30078125 560.33203125 C894.07667874 562.07526856 895.92245749 563.69408036 897.8125 565.3125 C901.93390079 568.85993395 905.71544479 572.69961052 909.53515625 576.56640625 C912.35631683 579.35179935 915.28846741 581.96118212 918.30859375 584.52734375 C919.95893661 585.96424735 921.54354939 587.36539029 923 589 C923 589.66 923 590.32 923 591 C924.32 591.66 925.64 592.32 927 593 C927 593.66 927 594.32 927 595 C927.57234375 595.2578125 928.1446875 595.515625 928.734375 595.78125 C931.21128995 597.11365942 933.1341166 598.65056118 935.25 600.5 C935.95640625 601.1084375 936.6628125 601.716875 937.390625 602.34375 C939 604 939 604 939 606 C940.32 606.66 941.64 607.32 943 608 C943 608.66 943 609.32 943 610 C944.32 610.66 945.64 611.32 947 612 C947 612.66 947 613.32 947 614 C947.61875 614.309375 948.2375 614.61875 948.875 614.9375 C950.25 615.625 951.625 616.3125 953 617 C953 617.66 953 618.32 953 619 C953.66 619 954.32 619 955 619 C956.36176922 620.64351457 957.68962066 622.31522656 959 624 C961.58350893 626.70953375 963.88143016 628.92095344 967 631 C967 631.66 967 632.32 967 633 C967.99 633.33 968.98 633.66 970 634 C971.68933922 635.6436814 973.35259924 637.3142876 975 639 C976.09526581 639.9066941 977.19939786 640.80279382 978.3125 641.6875 C979.199375 642.450625 980.08625 643.21375 981 644 C981 644.66 981 645.32 981 646 C981.99 646.33 982.98 646.66 984 647 C985.61328125 648.70703125 985.61328125 648.70703125 987.3125 650.8125 C989.52302847 653.44161791 991.51869756 655.55593592 994.4375 657.375 C995.283125 657.91125 996.12875 658.4475 997 659 C997 659.66 997 660.32 997 661 C997.66 661 998.32 661 999 661 C1000.55078125 662.609375 1000.55078125 662.609375 1002.3125 664.75 C1005.00233417 667.92333742 1007.7418814 670.41021342 1011 673 C1011.99660103 674.15180939 1012.97450139 675.31995248 1013.9375 676.5 C1015.89769453 678.86523473 1017.3182513 680.20991043 1019.9375 681.9375 C1023.35473554 684.23890353 1025.57865178 686.7954429 1028.21875 689.921875 C1031.96798933 694.29598756 1036.07741678 698.2468976 1040.47265625 701.96484375 C1046.83238996 707.50335279 1052.66094431 713.60469729 1058.58203125 719.60253906 C1063.88314938 724.96613935 1069.18105925 730.24585996 1074.921875 735.14453125 C1080.1876161 739.84608581 1085.05281128 745.00597145 1090.00927734 750.02978516 C1095.32170912 755.40782382 1100.62809548 760.72788132 1106.40405273 765.61669922 C1108.65886147 767.57107375 1110.45191549 769.44229516 1112 772 C1111.75 774.8125 1111.75 774.8125 1111 777 C1106.0010786 775.55963282 1101.95198732 773.38906646 1097.5625 770.6875 C1096.61793945 770.11999023 1096.61793945 770.11999023 1095.65429688 769.54101562 C1092.45397489 767.59714071 1089.3586319 765.57108391 1086.328125 763.37109375 C1083.70598522 761.47007 1081.07335049 759.85860473 1078.1875 758.375 C1067.19409198 752.49868936 1056.31894788 746.01285177 1046.3359375 738.53515625 C1044.30882935 737.20295976 1042.35603583 736.16370768 1040.1796875 735.109375 C1036.11750397 733.12359693 1032.46312855 730.75568099 1028.75 728.1875 C1024.24752029 725.12617185 1019.73599511 722.19439722 1015 719.5 C1009.60454601 716.42627046 1004.46454017 713.04794662 999.33789062 709.55078125 C994.09464737 705.99062478 988.72217761 702.74664525 983 700 C983 699.34 983 698.68 983 698 C982.10474609 697.82017578 982.10474609 697.82017578 981.19140625 697.63671875 C978.38019087 696.81991286 976.43191332 695.18119711 974.109375 693.44921875 C971.71936774 691.80719524 969.25268234 690.47643081 966.6875 689.125 C962.01536846 686.63832368 957.74746633 683.84210458 953.484375 680.7109375 C951.01256119 679.00865063 948.45802872 677.54016965 945.84277344 676.07128906 C942.71636121 674.25376166 939.74228627 672.21570978 936.75 670.1875 C931.54978519 666.69199137 926.31853986 663.26262036 921.01953125 659.91796875 C916.38794751 656.97604428 911.7887633 653.98420121 907.18798828 650.99438477 C906.50333496 650.55022217 905.81868164 650.10605957 905.11328125 649.6484375 C904.44119629 649.21112305 903.76911133 648.77380859 903.07666016 648.32324219 C901.63102456 647.40208713 900.17104294 646.50322429 898.70068359 645.62207031 C897.9680127 645.18217773 897.2353418 644.74228516 896.48046875 644.2890625 C895.81297607 643.8967041 895.1454834 643.5043457 894.45776367 643.10009766 C893.97670166 642.73706543 893.49563965 642.3740332 893 642 C893 641.34 893 640.68 893 640 C892.41387939 639.87939209 891.82775879 639.75878418 891.22387695 639.63452148 C888.93817308 638.98235941 887.39614105 638.1490502 885.41796875 636.84765625 C884.74088867 636.40591064 884.06380859 635.96416504 883.36621094 635.5090332 C882.28774902 634.79299927 882.28774902 634.79299927 881.1875 634.0625 C880.43629883 633.57031982 879.68509766 633.07813965 878.91113281 632.57104492 C873.38513459 628.94264706 867.89388273 625.26187288 862.4074707 621.57397461 C857.29784548 618.15591544 852.08033031 614.94370896 846.8046875 611.7890625 C844 610 844 610 841.3203125 607.8359375 C839.05451479 605.82891039 839.05451479 605.82891039 836 605 C836 604.34 836 603.68 836 603 C835.35417969 602.78730469 834.70835937 602.57460937 834.04296875 602.35546875 C829.80868295 600.46933631 826.13914639 597.91222517 822.3125 595.3125 C821.50449951 594.76867676 820.69649902 594.22485352 819.86401367 593.66455078 C815.04904793 590.41581748 810.27365639 587.11550957 805.53125 583.76171875 C800.39734225 580.18858234 795.1675086 576.75617609 789.95556641 573.29833984 C786.80053715 571.20365251 783.65046271 569.10154638 780.5 567 C779.25002506 566.16662908 778.00002502 565.3332958 776.75 564.5 C739.25 539.5 739.25 539.5 737.37231445 538.24804688 C736.13146684 537.420923 734.89042098 536.59409644 733.64916992 535.76757812 C730.38238885 533.59172921 727.11995645 531.40970131 723.86328125 529.21875 C723.18523438 528.76371094 722.5071875 528.30867188 721.80859375 527.83984375 C720.51174009 526.96935294 719.21609544 526.09705725 717.921875 525.22265625 C715.02654606 523.28183136 712.17486469 521.44956601 709 520 C709 519.34 709 518.68 709 518 C707.90945313 517.60554688 707.90945313 517.60554688 706.796875 517.203125 C703.95946484 515.98256309 701.74570768 514.56061145 699.25 512.75 C695.4143259 510.00701426 691.54907467 507.33697647 687.6171875 504.734375 C685.53512111 503.35461757 683.45774373 501.96855388 681.3828125 500.578125 C680.06774725 499.69785853 678.75264243 498.81765116 677.4375 497.9375 C676.7887793 497.50268311 676.14005859 497.06786621 675.47167969 496.61987305 C672.04580814 494.3323228 668.59631365 492.11903061 665.0625 490 C664.051875 489.34 663.04125 488.68 662 488 C662 487.34 662 486.68 662 486 C661.25621094 485.896875 660.51242187 485.79375 659.74609375 485.6875 C656.73160841 484.93280666 655.40272856 484.0019381 653.0625 482 C648.46283283 478.23450976 643.59061247 475.10661115 638.52172852 472.02148438 C636.98206481 471.06461926 635.48617527 470.03799723 634 469 C634 468.34 634 467.68 634 467 C632.35 466.67 630.7 466.34 629 466 C629 465.34 629 464.68 629 464 C628.28199219 463.74347656 627.56398438 463.48695313 626.82421875 463.22265625 C623.82859999 461.92579778 621.45241018 460.35053627 618.8125 458.4375 C615.52121677 456.02799361 615.52121677 456.02799361 612 454 C612 453.34 612 452.68 612 452 C611.27683594 451.9071875 610.55367187 451.814375 609.80859375 451.71875 C606.52295609 450.87791922 604.73523221 449.57558865 602.0625 447.5 C597.81154604 444.29605085 593.49910546 441.33436272 589 438.5 C583.72364854 435.16327313 578.66760019 431.61887918 573.6484375 427.90234375 C570.09244068 425.34811005 566.40149233 423.04085224 562.69140625 420.71875 C559.1835716 418.47862337 555.79441566 416.08863191 552.3984375 413.68359375 C550.12144507 412.0852489 547.82027089 410.53463531 545.5 409 C542.33522969 406.90680981 539.22147045 404.75542623 536.125 402.5625 C531.75432897 399.48408619 527.27679196 396.61554268 522.75 393.7734375 C519.11191944 391.42728896 515.5996063 388.92114352 512.09375 386.3828125 C509.95694818 384.84178865 509.95694818 384.84178865 507 384 C507.29769287 384.64026123 507.59538574 385.28052246 507.90209961 385.94018555 C509.25281143 388.85340797 510.59522296 391.77038223 511.9375 394.6875 C512.40607422 395.69490234 512.87464844 396.70230469 513.35742188 397.74023438 C513.80537109 398.71669922 514.25332031 399.69316406 514.71484375 400.69921875 C515.12855225 401.59471436 515.54226074 402.49020996 515.96850586 403.4128418 C516.97833975 405.9456725 517.55782435 408.31521102 518 411 C518.66 411 519.32 411 520 411 C523.83333333 418.66666667 527.66666667 426.33333333 531.5 434 C532.34884766 435.69382812 532.34884766 435.69382812 533.21484375 437.421875 C534.48622419 439.9701999 535.74912784 442.52167181 537.00390625 445.078125 C540.29332754 451.75697849 543.65624045 458.2614933 547.578125 464.59765625 C549.71853499 468.2140083 551.52741277 471.979686 553.37890625 475.75 C555.13066424 479.26195819 556.95829696 482.72901219 558.8125 486.1875 C559.14314453 486.8050415 559.47378906 487.42258301 559.81445312 488.05883789 C560.50733678 489.35205575 561.20054172 490.64510151 561.89404297 491.93798828 C563.89267423 495.66435464 565.88672182 499.393099 567.875 503.125 C568.2563208 503.83551514 568.6376416 504.54603027 569.03051758 505.27807617 C570.55269929 508.13879286 571.96233701 510.9025957 573.1328125 513.9296875 C573.80937766 516.17643896 573.80937766 516.17643896 576 517 C576.97387695 518.73071289 576.97387695 518.73071289 577.98828125 520.97265625 C578.36533203 521.79056641 578.74238281 522.60847656 579.13085938 523.45117188 C579.52080078 524.31291016 579.91074219 525.17464844 580.3125 526.0625 C582.82882833 531.61385467 585.43371857 536.89137144 588.74389648 542.01367188 C590.51005106 544.80656472 592.08419131 547.69341414 593.67382812 550.58935547 C596.15736953 555.10380463 598.71154459 559.57877424 601.25 564.0625 C605.0898739 570.85050044 608.92776566 577.63954911 612.75 584.4375 C613.10473389 585.06769043 613.45946777 585.69788086 613.82495117 586.34716797 C615.64749447 589.58659306 617.46292841 592.82978073 619.26953125 596.078125 C624.66650237 605.7630534 630.33595203 615.22604934 636.27734375 624.58984375 C636.64915771 625.18128174 637.02097168 625.77271973 637.40405273 626.38208008 C638.4411924 628.0314764 639.48599548 629.67604674 640.53125 631.3203125 C642 634 642 634 642 637 C642.66 637 643.32 637 644 637 C645.40112305 638.86083984 645.40112305 638.86083984 647.01171875 641.4609375 C647.60533203 642.40839844 648.19894531 643.35585937 648.81054688 644.33203125 C649.73963867 645.83830078 649.73963867 645.83830078 650.6875 647.375 C654.85102503 654.07420568 659.07508011 660.65155908 663.72583008 667.02587891 C665 669 665 669 665 671 C665.66 671 666.32 671 667 671 C668.14160156 672.35766602 668.14160156 672.35766602 669.390625 674.25390625 C669.85339844 674.94419922 670.31617188 675.63449219 670.79296875 676.34570312 C671.27378906 677.07724609 671.75460937 677.80878906 672.25 678.5625 C675.52154972 683.5151369 678.82314614 688.13407438 682.88964844 692.47241211 C684 694 684 694 684 697 C684.99 697.33 685.98 697.66 687 698 C688.65625 700.046875 688.65625 700.046875 690.5 702.75 C693.67952742 707.26117452 697.02557491 711.50507804 700.625 715.6875 C704.16187366 719.79879951 707.53518862 723.96692636 710.72265625 728.35546875 C712.1612398 730.27813455 712.1612398 730.27813455 714.8125 732.8125 C717 735 717 735 718 738 C718.66 738 719.32 738 720 738 C720.33 738.99 720.66 739.98 721 741 C721.66 741.33 722.32 741.66 723 742 C723 742.66 723 743.32 723 744 C723.66 744 724.32 744 725 744 C725.12375 744.928125 725.12375 744.928125 725.25 745.875 C726.24578885 748.69640174 727.36322266 748.71927958 730 750 C732.3125 752.3125 732.3125 752.3125 734 755 C733.75 757.8125 733.75 757.8125 733 760 C727.82267042 759.4555586 723.90866996 756.87485947 719.5 754.3125 C712.15110036 750.12577232 704.76254221 746.37382577 697 743 C697 742.34 697 741.68 697 741 C695.948125 740.87625 695.948125 740.87625 694.875 740.75 C692.02328388 740.00607405 690.21741641 738.90903345 687.8359375 737.22265625 C684.73165455 735.1553359 681.41661359 733.47363182 678.1328125 731.7109375 C675.29075039 730.15878886 672.48823544 728.5555002 669.68896484 726.9284668 C665.33372586 724.39914563 661.02380813 721.89976865 656.375 719.9375 C651.27924927 717.78017488 646.6303216 714.94753577 641.88427734 712.1171875 C638.08418175 709.86411191 634.25997602 707.65231941 630.4375 705.4375 C629.60903564 704.95740479 628.78057129 704.47730957 627.92700195 703.98266602 C622.92450457 701.09141491 617.89326603 698.26804999 612.80859375 695.5234375 C595.00995874 685.8691014 595.00995874 685.8691014 587.14379883 680.42114258 C585.12689556 679.08412015 583.09376446 677.90148274 580.96875 676.74609375 C575.40833173 673.68618149 569.91703166 670.51463531 564.4375 667.3125 C563.42880859 666.73177734 562.42011719 666.15105469 561.38085938 665.55273438 C560.42888672 664.99521484 559.47691406 664.43769531 558.49609375 663.86328125 C557.63169678 663.36094971 556.7672998 662.85861816 555.87670898 662.34106445 C555.25739502 661.89851318 554.63808105 661.45596191 554 661 C554 660.34 554 659.68 554 659 C552.9171875 658.87625 552.9171875 658.87625 551.8125 658.75 C549 658 549 658 546.98046875 656.359375 C542.73493307 652.99855777 538.1249551 650.30550922 533.5 647.5 C528.10069882 644.22477053 522.87733286 641.02910106 518 637 C516.33927109 635.99016968 514.67222964 634.99066938 513 634 C510.90200874 632.53751139 508.82118974 631.06180296 506.75 629.5625 C505.50818797 628.66874891 504.26598261 627.77554413 503.0234375 626.8828125 C502.04455566 626.17946777 502.04455566 626.17946777 501.04589844 625.46191406 C498.22716339 623.44776305 495.39116741 621.4585992 492.55541992 619.46850586 C484.92986289 614.11413701 477.42418461 608.63149275 470 603 C468.02797878 601.5175095 466.05401366 600.03763855 464.07958984 598.55834961 C462.69517649 597.5209335 461.31138514 596.48268681 459.92822266 595.44360352 C456.88420375 593.15713105 453.83759004 590.87523666 450.76953125 588.62109375 C444.96379479 584.33389866 439.40062376 579.86225221 433.93164062 575.16040039 C430.15453691 571.92876551 426.27910217 568.86996284 422.3125 565.875 C417.46985351 562.21118874 412.92373613 558.32405831 408.45703125 554.2109375 C405.89169648 551.90254405 403.24894893 549.7283782 400.5625 547.5625 C396.56227927 544.31660661 392.64854055 540.99940774 388.8125 537.5625 C387.89082031 536.73878906 386.96914063 535.91507813 386.01953125 535.06640625 C384 533 384 533 384 531 C383.42765625 530.7421875 382.8553125 530.484375 382.265625 530.21875 C379.78871005 528.88634058 377.8658834 527.34943882 375.75 525.5 C375.04359375 524.8915625 374.3371875 524.283125 373.609375 523.65625 C372 522 372 522 372 520 C371.01 519.67 370.02 519.34 369 519 C367.31002677 517.35697047 365.64783606 515.68528688 364 514 C362.84131699 513.0113989 361.6742632 512.03254351 360.5 511.0625 C357.22681225 508.29941943 354.69117688 505.32856088 352 502 C350.34586937 500.32089089 348.67766741 498.65559283 347 497 C337 487 337 487 335.36328125 485.35546875 C334.03116032 484.03098175 332.67205056 482.73381565 331.3125 481.4375 C329 479 329 479 329 477 C328.34 477 327.68 477 327 477 C325.484375 475.4609375 325.484375 475.4609375 323.75 473.375 C321.45339927 470.65952241 319.12849225 468.08737736 316.5625 465.625 C314 463 314 463 314 461 C313.34 461 312.68 461 312 461 C310.4921875 459.5390625 310.4921875 459.5390625 308.875 457.625 C308.33617187 456.99851562 307.79734375 456.37203125 307.2421875 455.7265625 C306 454 306 454 306 452 C305.01 451.67 304.02 451.34 303 451 C301.2109375 449.2578125 301.2109375 449.2578125 299.375 447.125 C298.45847656 446.07699219 298.45847656 446.07699219 297.5234375 445.0078125 C296 443 296 443 295 440 C294.01 439.67 293.02 439.34 292 439 C287 433.53488372 287 433.53488372 287 431 C286.01 430.67 285.02 430.34 284 430 C280 425.54285714 280 425.54285714 280 423 C279.01 422.67 278.02 422.34 277 422 C275.02734375 419.85546875 275.02734375 419.85546875 272.9375 417.1875 C272.24527344 416.31480469 271.55304688 415.44210937 270.83984375 414.54296875 C269.29012558 412.4010016 268.08061176 410.40198158 267 408 C266.34 408 265.68 408 265 408 C263.39365985 406.26608049 261.8624713 404.461909 260.375 402.625 C259.55773437 401.62726563 258.74046875 400.62953125 257.8984375 399.6015625 C256 397 256 397 256 395 C255.34 395 254.68 395 254 395 C252.49873909 393.36896408 251.07315614 391.66782355 249.6875 389.9375 C248.88183594 388.93332031 248.07617188 387.92914062 247.24609375 386.89453125 C245.51923509 384.66913601 243.85506023 382.43772257 242.25 380.125 C240.08454259 376.92848891 240.08454259 376.92848891 237.25 374.3125 C234.96439579 371.96340679 234.65355906 371.04994226 234 368 C233.01 367.67 232.02 367.34 231 367 C229.8125 364.4375 229.8125 364.4375 229 362 C228.34 362 227.68 362 227 362 C225.8515625 360.390625 225.8515625 360.390625 224.625 358.25 C222.71239527 355.03773212 220.70097653 352.60094036 218 350 C218 349.34 218 348.68 218 348 C217.34 348 216.68 348 216 348 C215.1190588 346.69620703 214.24830729 345.38493609 213.4140625 344.05078125 C210.86095463 340.34806956 207.84765553 337.00036997 204.92578125 333.5859375 C203.17400173 331.23364938 202.39551227 329.85573268 202 327 C201.34 327 200.68 327 200 327 C198.2734375 324.8828125 198.2734375 324.8828125 196.375 322.125 C195.74335937 321.22007812 195.11171875 320.31515625 194.4609375 319.3828125 C193 317 193 317 193 315 C192.34 315 191.68 315 191 315 C189.4140625 312.98828125 189.4140625 312.98828125 187.625 310.3125 C185.68405279 307.44362604 183.7768501 304.73107576 181.5625 302.0625 C180 300 180 300 180 297 C179.01 296.67 178.02 296.34 177 296 C176.3125 293.9375 176.3125 293.9375 176 292 C175.34 292 174.68 292 174 292 C172.4921875 290.1015625 172.4921875 290.1015625 170.875 287.625 C170.33617187 286.81289063 169.79734375 286.00078125 169.2421875 285.1640625 C168 283 168 283 168 281 C167.34 281 166.68 281 166 281 C165.566875 280.071875 165.13375 279.14375 164.6875 278.1875 C163.23894475 275.07352146 163.23894475 275.07352146 161.3125 273.3125 C160.879375 272.879375 160.44625 272.44625 160 272 C160 271.01 160 270.02 160 269 C159.34 269 158.68 269 158 269 C156.4921875 266.8828125 156.4921875 266.8828125 154.875 264.125 C154.33617187 263.22007812 153.79734375 262.31515625 153.2421875 261.3828125 C152 259 152 259 152 257 C151.01 256.67 150.02 256.34 149 256 C147.859375 254.3203125 147.859375 254.3203125 146.75 252.125 C144.22611074 247.31648927 141.34442738 242.81639203 138.35546875 238.28515625 C137 236 137 236 137 234 C136.34 234 135.68 234 135 234 C133.73828125 232.21850586 133.73828125 232.21850586 132.3125 229.71484375 C131.78309814 228.79832031 131.25369629 227.88179687 130.70825195 226.9375 C130.14452881 225.9475 129.58080566 224.9575 129 223.9375 C124.61370566 216.34642536 120.13525085 208.90678442 115.07226562 201.74584961 C112.66897968 198.28268182 111.14273166 195.05761404 110 191 C109.34 191 108.68 191 108 191 C107.63648438 190.31035156 107.27296875 189.62070312 106.8984375 188.91015625 C104.01958357 183.5289139 100.99582601 178.39236838 97.5546875 173.35546875 C95.19076882 169.77395376 93.07867272 166.05583305 90.94140625 162.3359375 C89.51520678 159.88528489 88.06860507 157.45758101 86.58984375 155.0390625 C86.18096924 154.3682666 85.77209473 153.6974707 85.35083008 153.00634766 C84.54877976 151.69361125 83.74277718 150.38327938 82.93237305 149.07568359 C81.12658972 146.11110671 79.53695511 143.46422654 79 140 C78.34 140 77.68 140 77 140 C75.79019872 137.89666529 74.58183374 135.79253726 73.375 133.6875 C73.01035645 133.05175049 72.64571289 132.41600098 72.27001953 131.76098633 C70.08128726 127.9319043 67.95299535 124.0782147 65.875 120.1875 C63.66137315 116.08929894 61.20971011 112.26371084 58.57714844 108.42553711 C56.99963212 105.99943422 55.61954657 103.53720699 54.2578125 100.984375 C50.93007282 94.82630948 47.41869366 88.78571049 43.875 82.75 C42.09651504 79.71411485 40.3186251 76.67792346 38.54589844 73.63867188 C37.60045829 72.02491364 36.64724273 70.41563969 35.68066406 68.81445312 C33 64.32074538 33 64.32074538 33 61 C32.01 60.67 31.02 60.34 30 60 C28.5 57.453125 28.5 57.453125 27 54.25 C25.16313001 50.36578533 23.25154873 46.65954202 21 43 C18 37.44444444 18 37.44444444 18 34 C16.515 33.505 16.515 33.505 15 33 C13.54448347 30.69124965 12.26207887 28.41367271 11 26 C7.67722993 19.7498036 4.32384052 13.76497465 0.1015625 8.0703125 C-1.24547843 5.53863982 -1.27810387 3.82898763 -1 1 C-0.67 0.67 -0.34 0.34 0 0 Z " fill="#27291D" transform="translate(445,612)"/>
<path d="M0 0 C2.06477174 0.03840062 4.12826396 0.15660303 6.1875 0.3125 C7.31542969 0.39113281 8.44335938 0.46976563 9.60546875 0.55078125 C13 1 13 1 15.75 1.921875 C20.35376262 3.44908471 25.03470919 4.14630349 29.8125 4.9375 C31.88934621 5.29022746 33.96616898 5.64309295 36.04296875 5.99609375 C37.06052246 6.16737793 38.07807617 6.33866211 39.12646484 6.51513672 C49.33297452 8.23732263 59.51716835 10.07603149 69.6875 12 C70.50621582 12.15404297 71.32493164 12.30808594 72.16845703 12.46679688 C76.95877172 13.38032078 81.72725017 14.36825426 86.4921875 15.40625 C95.11047536 17.26650548 103.77136217 18.88133244 112.4375 20.5 C141.44162445 25.92957683 141.44162445 25.92957683 152.90625 28.5390625 C155.20166008 29.04439532 157.50475566 29.49201771 159.8125 29.9375 C164.47553097 30.8542259 169.05902197 32.00267632 173.65234375 33.21875 C176.4837107 33.87951241 179.29087903 34.42397116 182.15234375 34.9296875 C188.02320224 35.97704747 193.81895048 37.26747374 199.625 38.625 C201.28305664 39.0108728 201.28305664 39.0108728 202.97460938 39.40454102 C206.65111394 40.26396715 210.32586471 41.13050157 214 42 C214.6544812 42.15486877 215.3089624 42.30973755 215.98327637 42.46929932 C231.13686417 46.05917465 246.26747105 49.72558688 261.3125 53.75 C262.32441406 54.0193335 263.33632813 54.28866699 264.37890625 54.56616211 C270.42563045 56.20769009 276.35524682 58.07662235 282.27319336 60.13549805 C285.63141431 61.20018247 288.97813165 61.86179737 292.453125 62.41015625 C295.38115699 63.08827409 298.05889229 64.12806933 300.85888672 65.20874023 C304.33092312 66.4918497 307.87859646 67.48876251 311.4375 68.5 C317.34702272 70.18843506 323.18199674 72.01914352 329 74 C330.24483154 74.42216797 331.48966309 74.84433594 332.7722168 75.27929688 C349.26407641 80.87794426 365.7458743 86.50906182 382.16815186 92.30908203 C384.06143867 92.97755796 385.95575118 93.64312665 387.85009766 94.30859375 C394.47348487 96.65950714 400.98665526 99.17442912 407.44775391 101.94165039 C410.39839922 103.16520572 413.38375821 104.15862 416.421875 105.13671875 C426.46343295 108.49911922 436.30000126 112.46399059 446.06445312 116.55175781 C449.4154059 117.95208265 452.77224508 119.30107573 456.1796875 120.55859375 C459.23855126 121.69243148 462.18112829 122.96459201 465.125 124.375 C469.32906494 126.32294157 473.55493896 127.93476959 477.9375 129.4375 C483.36805057 131.33174172 488.34629035 133.58452735 493.4296875 136.2578125 C496.39054467 137.70260714 499.33746368 138.99316379 502.3828125 140.2421875 C503.33728271 140.63567383 504.29175293 141.02916016 505.27514648 141.43457031 C507.19662999 142.21998012 509.12320285 142.99306702 511.05493164 143.75292969 C511.93785889 144.11547852 512.82078613 144.47802734 513.73046875 144.8515625 C514.52864014 145.16947754 515.32681152 145.48739258 516.14916992 145.81494141 C518 147 518 147 518.7668457 149.13427734 C518.88225708 150.05781006 518.88225708 150.05781006 519 151 C514.85238398 150.34345931 511.35155324 148.98795518 507.51171875 147.3046875 C506.89602524 147.03637619 506.28033173 146.76806488 505.64598083 146.49162292 C503.65780993 145.62393322 501.67271257 144.74943389 499.6875 143.875 C498.31711148 143.27611466 496.94650519 142.67772738 495.57568359 142.07983398 C490.05194158 139.66810979 484.53481316 137.24165791 479.02734375 134.79296875 C471.99544573 131.67105214 464.92600523 128.78234028 457.70874023 126.12280273 C451.03422774 123.66221724 444.48747909 120.9414602 437.95947266 118.1171875 C427.29046482 113.50153407 416.56903622 109.34532005 405.5703125 105.58203125 C401.84497113 104.30492384 398.16632904 102.93933889 394.5 101.5 C389.31895835 99.4710637 384.09362334 97.60263764 378.83984375 95.7734375 C377.96589462 95.46848358 377.0919455 95.16352966 376.19151306 94.84933472 C338.75629423 81.80059361 301.18713239 69.6674342 263 59 C261.79118164 58.66194336 260.58236328 58.32388672 259.33691406 57.97558594 C243.32441016 53.52132308 227.22102652 49.61632367 211 46 C210.09620605 45.79745605 209.19241211 45.59491211 208.26123047 45.38623047 C203.17648056 44.24676104 198.08891972 43.12068302 193 42 C191.68747466 41.70714479 190.37497645 41.41416797 189.0625 41.12109375 C156.50389979 33.88430738 123.85669723 27.09321894 91.125 20.6875 C89.81625916 20.43081543 89.81625916 20.43081543 88.4810791 20.16894531 C79.8472304 18.47790974 71.21937099 16.83981416 62.53320312 15.43676758 C60.25767965 15.04442838 58.02279088 14.58172398 55.7734375 14.0625 C48.77753791 12.44975773 41.68954664 11.26936175 34.625 10 C33.16924078 9.73714557 31.7135114 9.47412577 30.2578125 9.2109375 C27.45751233 8.70486202 24.6570555 8.19966947 21.85644531 7.6953125 C16.9033124 6.80226853 11.95143006 5.90243164 7 5 C7.99 6.485 7.99 6.485 9 8 C7.68 8.33 6.36 8.66 5 9 C4.67 10.32 4.34 11.64 4 13 C-0.87497685 6.95851084 -0.87497685 6.95851084 -1.375 3.125 C-1 1 -1 1 0 0 Z " fill="#454A34" transform="translate(445,612)"/>
<path d="M0 0 C2.06477174 0.03840062 4.12826396 0.15660303 6.1875 0.3125 C7.31542969 0.39113281 8.44335938 0.46976563 9.60546875 0.55078125 C13 1 13 1 15.75 1.921875 C20.35376262 3.44908471 25.03470919 4.14630349 29.8125 4.9375 C31.88934621 5.29022746 33.96616898 5.64309295 36.04296875 5.99609375 C37.06052246 6.16737793 38.07807617 6.33866211 39.12646484 6.51513672 C49.33297452 8.23732263 59.51716835 10.07603149 69.6875 12 C70.50621582 12.15404297 71.32493164 12.30808594 72.16845703 12.46679688 C76.95877172 13.38032078 81.72725017 14.36825426 86.4921875 15.40625 C95.11047536 17.26650548 103.77136217 18.88133244 112.4375 20.5 C141.44162445 25.92957683 141.44162445 25.92957683 152.90625 28.5390625 C155.20166008 29.04439532 157.50475566 29.49201771 159.8125 29.9375 C164.47553097 30.8542259 169.05902197 32.00267632 173.65234375 33.21875 C176.46732687 33.87568889 179.25656204 34.41642241 182.1015625 34.91796875 C188.26261357 36.01639019 194.34439162 37.38915135 200.4375 38.8125 C201.55753418 39.07240723 202.67756836 39.33231445 203.83154297 39.60009766 C213.9164685 41.95339018 223.9656522 44.44044853 234 47 C234 47.66 234 48.32 234 49 C225.77458845 49.41213555 218.62611202 48.274531 210.6875 46.1875 C208.60854751 45.65828834 206.52911543 45.13095731 204.44921875 44.60546875 C202.86778076 44.20448975 202.86778076 44.20448975 201.25439453 43.79541016 C196.76843941 42.69899292 192.25805617 41.74007954 187.73950195 40.78833008 C183.73388839 39.94390061 179.7338887 39.07586686 175.734375 38.203125 C147.58691361 32.07577436 119.39553993 26.22015331 91.125 20.6875 C89.81625916 20.43081543 89.81625916 20.43081543 88.4810791 20.16894531 C79.8472304 18.47790974 71.21937099 16.83981416 62.53320312 15.43676758 C60.25767965 15.04442838 58.02279088 14.58172398 55.7734375 14.0625 C48.77753791 12.44975773 41.68954664 11.26936175 34.625 10 C33.16924078 9.73714557 31.7135114 9.47412577 30.2578125 9.2109375 C27.45751233 8.70486202 24.6570555 8.19966947 21.85644531 7.6953125 C16.9033124 6.80226853 11.95143006 5.90243164 7 5 C7.99 6.485 7.99 6.485 9 8 C7.68 8.33 6.36 8.66 5 9 C4.67 10.32 4.34 11.64 4 13 C-0.87497685 6.95851084 -0.87497685 6.95851084 -1.375 3.125 C-1 1 -1 1 0 0 Z " fill="#555838" transform="translate(445,612)"/>
<path d="M0 0 C13.17048584 4.51834186 13.17048584 4.51834186 19.1875 7.375 C24.99021198 10.10822392 30.97593173 12.26168683 37.01245117 14.41357422 C42.46301456 16.37170377 47.72839588 18.60542635 53 21 C59.27793196 23.73250575 65.55440566 26.4587317 71.9375 28.9375 C76.82542535 30.863776 81.5616266 33.09518317 86.30102539 35.35644531 C91.37241955 37.76075745 96.53353498 39.82896283 101.8046875 41.76171875 C104 43 104 43 104.8203125 45.14453125 C104.87960937 45.75683594 104.93890625 46.36914062 105 47 C100.85238398 46.34345931 97.35155324 44.98795518 93.51171875 43.3046875 C92.89602524 43.03637619 92.28033173 42.76806488 91.64598083 42.49162292 C89.65780993 41.62393322 87.67271257 40.74943389 85.6875 39.875 C84.31711148 39.27611466 82.94650519 38.67772738 81.57568359 38.07983398 C76.05194158 35.66810979 70.53481316 33.24165791 65.02734375 30.79296875 C57.99544573 27.67105214 50.92600523 24.78234028 43.70874023 22.12280273 C36.99050144 19.64609737 30.40915425 16.89247291 23.83056641 14.06884766 C14.32518802 9.99176189 4.90939502 6.0064432 -5 3 C-4.360625 2.87625 -3.72125 2.7525 -3.0625 2.625 C-2.0415625 2.315625 -2.0415625 2.315625 -1 2 C-0.67 1.34 -0.34 0.68 0 0 Z " fill="#41432F" transform="translate(859,716)"/>
<path d="M0 0 C6.26927551 1.29929492 11.23610981 3.46391815 16.8125 6.5625 C23.47352394 10.17530341 30.18578719 13.56691966 37.0625 16.75 C42.87586453 19.45149778 48.48827486 22.24200751 53.89453125 25.7109375 C56.51814158 27.31722954 59.24515925 28.62898623 62 30 C65.32766919 31.76407433 68.63313369 33.56773387 71.9375 35.375 C73.23977539 36.07882812 73.23977539 36.07882812 74.56835938 36.796875 C79.63766739 39.57100879 84.46342238 42.40777119 89 46 C89 46.66 89 47.32 89 48 C84.56518915 47.46863456 81.49217321 46.41380524 77.67578125 44.11328125 C76.6604834 43.51136963 75.64518555 42.90945801 74.59912109 42.28930664 C73.51453613 41.63696045 72.42995117 40.98461426 71.3125 40.3125 C68.98053261 38.93782656 66.64707408 37.56660175 64.30859375 36.203125 C63.7092804 35.8535524 63.10996704 35.5039798 62.49249268 35.14381409 C51.89338498 29.00179654 40.92476377 23.53355893 30 18 C29.17725586 17.58105469 28.35451172 17.16210938 27.50683594 16.73046875 C18.10074668 11.94311069 8.58901 7.40874023 -1 3 C-0.67 2.01 -0.34 1.02 0 0 Z " fill="#414331" transform="translate(966,762)"/>
<path d="M0 0 C11.57356891 2.64086693 23.06632626 5.4906371 34.5 8.6875 C35.56726318 8.98470947 36.63452637 9.28191895 37.73413086 9.58813477 C42.26906086 10.86965853 46.62752829 12.2385146 51 14 C53.39381282 14.52718553 55.79013191 14.93374158 58.20703125 15.33984375 C61.21444484 16.05068696 63.95745929 17.08747486 66.8347168 18.19995117 C70.49905157 19.55388341 74.2466575 20.61093469 78 21.6875 C78.77472656 21.91244141 79.54945313 22.13738281 80.34765625 22.36914062 C82.23096846 22.91553367 84.11537024 23.45816894 86 24 C84.7487793 25.53759766 84.7487793 25.53759766 83 27 C81.13598633 26.97412109 81.13598633 26.97412109 79.01953125 26.3984375 C77.81611084 26.08084473 77.81611084 26.08084473 76.58837891 25.75683594 C75.73421387 25.50708008 74.88004883 25.25732422 74 25 C72.73615479 24.63696777 72.73615479 24.63696777 71.44677734 24.26660156 C68.52082586 23.4056833 65.60442202 22.51601829 62.6875 21.625 C49.80683708 17.74876312 36.85194086 14.16361946 23.875 10.625 C22.42460831 10.22828094 22.42460831 10.22828094 20.94491577 9.82354736 C18.14888582 9.059405 15.35197608 8.29858313 12.5546875 7.5390625 C11.30911324 7.19887085 11.30911324 7.19887085 10.03837585 6.85180664 C4.72026547 5.41478396 -0.61467588 4.16087995 -6 3 C-6 2.67 -6 2.34 -6 2 C-4.02 2 -2.04 2 0 2 C0 1.34 0 0.68 0 0 Z " fill="#465833" transform="translate(679,659)"/>
<path d="M0 0 C6.10436341 0.69399955 12.09475252 1.70641654 18.125 2.875 C18.97320313 3.03613281 19.82140625 3.19726562 20.6953125 3.36328125 C25.64562874 4.31356517 30.57507304 5.33602317 35.5 6.41015625 C45.08118844 8.4786587 54.72078403 10.23480473 64.35742188 12.02319336 C66.77772979 12.47305494 69.19747347 12.92586282 71.6171875 13.37890625 C72.34130829 13.51228897 73.06542908 13.64567169 73.81149292 13.78309631 C78.59381446 14.67980326 83.28893608 15.78203215 88 17 C88 17.33 88 17.66 88 18 C73.3263785 17.26535228 73.3263785 17.26535228 66.265625 15.4609375 C63.54301622 14.90702744 60.89949361 14.77139288 58.125 14.625 C49.24133653 14.06514963 40.65791403 11.9656299 32 10 C32 9.34 32 8.68 32 8 C30.76378906 7.88785156 29.52757812 7.77570312 28.25390625 7.66015625 C22.38729338 7.00831038 16.69030717 5.73324269 10.9375 4.4375 C9.88111328 4.20353516 8.82472656 3.96957031 7.73632812 3.72851562 C5.15658727 3.15653688 2.57788225 2.58028727 0 2 C0 1.34 0 0.68 0 0 Z " fill="#595B38" transform="translate(496,621)"/>
<path d="M0 0 C1.32 0 2.64 0 4 0 C4 0.66 4 1.32 4 2 C4.56976562 2.26039063 5.13953125 2.52078125 5.7265625 2.7890625 C14.80953051 7.62706952 22.63778368 15.90162015 30.40820312 22.62841797 C31.82149046 23.84618611 33.24590958 25.05100852 34.671875 26.25390625 C35.39890625 26.87136719 36.1259375 27.48882813 36.875 28.125 C37.49117187 28.64320313 38.10734375 29.16140625 38.7421875 29.6953125 C40 31 40 31 40 33 C34.86912279 31.46956626 31.57364855 28.2584641 27.6875 24.75 C23.09490153 20.67822316 18.53338894 16.69703632 13.515625 13.1484375 C12 12 12 12 10.58984375 10.57421875 C7.934815 7.94528365 4.85984924 5.84342886 1.86328125 3.62109375 C1.24839844 3.08613281 0.63351562 2.55117188 0 2 C0 1.34 0 0.68 0 0 Z " fill="#373826" transform="translate(1017,885)"/>
<path d="M0 0 C3.94787746 -0.16799479 6.96752356 -0.00767445 10.8515625 0.91015625 C17.30240287 2.40201641 23.85807387 2.92184491 30.4375 3.5625 C32.95737864 3.81029442 35.47693272 4.06141963 37.99609375 4.31640625 C39.10138428 4.42412354 40.2066748 4.53184082 41.34545898 4.64282227 C44 5 44 5 46 6 C46 6.99 46 7.98 46 9 C48.31 9.33 50.62 9.66 53 10 C49.88709815 10.98136866 47.76779801 10.9712494 44.58618164 10.30322266 C43.72170914 10.12618805 42.85723663 9.94915344 41.96656799 9.76675415 C41.04045212 9.56786591 40.11433624 9.36897766 39.16015625 9.1640625 C38.20104843 8.96525482 37.24194061 8.76644714 36.25376892 8.56161499 C33.18823888 7.92425301 30.12540841 7.27483165 27.0625 6.625 C25.00342315 6.19450842 22.94417997 5.76481164 20.88476562 5.3359375 C17.10318718 4.54742729 13.32266434 3.75420735 9.54321289 2.95556641 C6.36571878 2.28481606 3.18668798 1.62597878 0 1 C0 0.67 0 0.34 0 0 Z " fill="#474934" transform="translate(553,635)"/>
<path d="M0 0 C0.598125 0.309375 1.19625 0.61875 1.8125 0.9375 C4.08956772 2.10209704 4.08956772 2.10209704 7 3 C7 3.66 7 4.32 7 5 C7.59095459 5.12076904 8.18190918 5.24153809 8.79077148 5.3659668 C12.34308905 6.38545721 15.10713239 8.66732663 18.0625 10.8125 C18.68705078 11.25142578 19.31160156 11.69035156 19.95507812 12.14257812 C23.19763495 14.4715437 25.82354852 16.57986196 28 20 C22.13998008 19.706999 18.14453354 16.96570849 14 13 C14 12.34 14 11.68 14 11 C12.91138672 10.85691406 12.91138672 10.85691406 11.80078125 10.7109375 C8.58741627 9.89527163 6.78359068 8.6657081 4.1875 6.625 C3.39730469 6.01914062 2.60710937 5.41328125 1.79296875 4.7890625 C1.20128906 4.19867187 0.60960937 3.60828125 0 3 C0 2.01 0 1.02 0 0 Z " fill="#3C3E2C" transform="translate(1118,849)"/>
<path d="M0 0 C2.06477174 0.03840062 4.12826396 0.15660303 6.1875 0.3125 C7.31542969 0.39113281 8.44335938 0.46976563 9.60546875 0.55078125 C12.95728661 0.99434748 15.83824917 1.82453877 19 3 C19 3.33 19 3.66 19 4 C14.05 4 9.1 4 4 4 C6.475 5.98 6.475 5.98 9 8 C7.68 8.33 6.36 8.66 5 9 C4.67 10.32 4.34 11.64 4 13 C-0.87497685 6.95851084 -0.87497685 6.95851084 -1.375 3.125 C-1 1 -1 1 0 0 Z " fill="#5F6E3D" transform="translate(445,612)"/>
<path d="M0 0 C4.5199018 1.42054056 6.71613236 3.65082818 10 7 C11.10371373 8.02189557 12.21472988 9.0359473 13.33203125 10.04296875 C13.90244141 10.55923828 14.47285156 11.07550781 15.06054688 11.60742188 C16.24511879 12.67578161 17.43270834 13.74080345 18.62304688 14.80273438 C20.11915331 16.16205394 21.56435779 17.57696958 23 19 C23 19.66 23 20.32 23 21 C18.51899299 19.59168351 16.17373705 17.41176733 13 14 C9.51672968 10.19792607 9.51672968 10.19792607 5 8 C5 7.34 5 6.68 5 6 C4.34 6 3.68 6 3 6 C0 2.53846154 0 2.53846154 0 0 Z " fill="#323423" transform="translate(1074,932)"/>
<path d="M0 0 C5.17779255 1.36257699 9.32141763 3.86736335 13.828125 6.66015625 C15.93676304 8.00546176 15.93676304 8.00546176 18 9 C18 9.99 18 10.98 18 12 C13.68204632 11.40028421 10.51526887 9.8529933 6.75 7.6875 C5.69296875 7.09324219 4.6359375 6.49898437 3.546875 5.88671875 C1 4 1 4 0.140625 1.76953125 C0.09421875 1.18558594 0.0478125 0.60164062 0 0 Z " fill="#3C3E2D" transform="translate(1057,810)"/>
<path d="M0 0 C3.4584125 0.66755404 6.09971458 2.02893621 9.125 3.8125 C9.99382812 4.31394531 10.86265625 4.81539062 11.7578125 5.33203125 C14.10256817 7.07630071 14.9605109 8.30784002 16 11 C11.72903508 10.4222095 8.81164208 8.92465642 5.1875 6.625 C4.21167969 6.01914062 3.23585938 5.41328125 2.23046875 4.7890625 C1.49441406 4.19867187 0.75835938 3.60828125 0 3 C0 2.01 0 1.02 0 0 Z " fill="#393B2B" transform="translate(1087,829)"/>
<path d="M0 0 C2.97930406 0.6243506 5.95844461 1.24946491 8.9375 1.875 C9.76830078 2.04902344 10.59910156 2.22304688 11.45507812 2.40234375 C16.97905817 3.56302438 22.49190357 4.76609747 28 6 C28 6.66 28 7.32 28 8 C21.2946414 7.71587464 14.888029 6.68170155 8.375 5.125 C7.66408203 4.96354492 6.95316406 4.80208984 6.22070312 4.63574219 C4.2109375 4.1328125 4.2109375 4.1328125 1 3 C0.67 2.01 0.34 1.02 0 0 Z " fill="#656638" transform="translate(631,648)"/>
<path d="M0 0 C2.15138043 0.56253063 4.29607714 1.15067821 6.4375 1.75 C7.63246094 2.07484375 8.82742188 2.3996875 10.05859375 2.734375 C13 4 13 4 13.91015625 6.140625 C13.93980469 6.75421875 13.96945312 7.3678125 14 8 C7.58008874 7.42934122 1.98410537 5.32655091 -4 3 C-2.68 2.67 -1.36 2.34 0 2 C0 1.34 0 0.68 0 0 Z " fill="#414331" transform="translate(782,689)"/>
<path d="M0 0 C9.57 1.98 19.14 3.96 29 6 C29 6.33 29 6.66 29 7 C9.49821499 6.21777073 9.49821499 6.21777073 1 3 C0.67 2.01 0.34 1.02 0 0 Z " fill="#666738" transform="translate(555,632)"/>
<path d="M0 0 C6.2484067 0.69345635 12.34403221 1.79641069 18.5 3.0625 C19.4178125 3.24876953 20.335625 3.43503906 21.28125 3.62695312 C23.52138854 4.08198127 25.76093726 4.53971267 28 5 C28.33 5.99 28.66 6.98 29 8 C27.74445312 7.73445312 26.48890625 7.46890625 25.1953125 7.1953125 C16.80461051 5.42320696 8.41469503 3.65534984 0 2 C0 1.34 0 0.68 0 0 Z " fill="#65673A" transform="translate(496,621)"/>
<path d="M0 0 C7.5786627 -0.37446041 14.28174361 0.68624508 21.625 2.5 C23.13126953 2.85771484 23.13126953 2.85771484 24.66796875 3.22265625 C27.11455443 3.80517665 29.55821717 4.39772347 32 5 C32 5.33 32 5.66 32 6 C22.73465728 5.55366289 14.02500249 4.09671775 5 2 C3.33472496 1.65978252 1.66855482 1.32374944 0 1 C0 0.67 0 0.34 0 0 Z " fill="#454732" transform="translate(496,624)"/>
<path d="M0 0 C0.66 0.66 1.32 1.32 2 2 C4.70895263 2.78462264 7.38243917 3.48554281 10.125 4.125 C11.25615234 4.39763672 11.25615234 4.39763672 12.41015625 4.67578125 C14.27191946 5.12354709 16.13577253 5.56260722 18 6 C18 6.33 18 6.66 18 7 C11.51143379 6.48524944 5.31529964 5.57035179 -1 4 C-2.15822266 3.71576172 -2.15822266 3.71576172 -3.33984375 3.42578125 C-5.22838018 2.95779595 -7.11446956 2.4799532 -9 2 C-9 1.67 -9 1.34 -9 1 C-7.54364629 0.77825067 -6.08477044 0.57301302 -4.625 0.375 C-3.40683594 0.20097656 -3.40683594 0.20097656 -2.1640625 0.0234375 C-1.44992187 0.01570312 -0.73578125 0.00796875 0 0 Z " fill="#464834" transform="translate(630,648)"/>
<path d="M0 0 C5.4185766 -0.22577402 9.77487721 0.53329887 15 2 C15 2.66 15 3.32 15 4 C15.99 4.33 16.98 4.66 18 5 C12.5610835 5.21755666 8.12919186 5.10428384 3 3 C3 2.34 3 1.68 3 1 C2.01 0.67 1.02 0.34 0 0 Z " fill="#4C523A" transform="translate(720,672)"/>
<path d="M0 0 C4.60853797 0.72008406 8.67237409 2.31295939 13 4 C13 4.66 13 5.32 13 6 C7.73946963 6.31563182 4.55426184 5.66590937 0 3 C0 2.01 0 1.02 0 0 Z " fill="#474935" transform="translate(916,740)"/>
<path d="M0 0 C1.17219543 0.78345715 2.33763668 1.57702836 3.5 2.375 C4.47453125 3.03628906 4.47453125 3.03628906 5.46875 3.7109375 C5.9740625 4.13632812 6.479375 4.56171875 7 5 C7 5.66 7 6.32 7 7 C9.475 7.99 9.475 7.99 12 9 C10.02 9.99 10.02 9.99 8 11 C1.29540481 5.9059081 1.29540481 5.9059081 0.0625 2.125 C0.041875 1.42375 0.02125 0.7225 0 0 Z " fill="#202417" transform="translate(1003,871)"/>
<path d="M0 0 C0.66 0.33 1.32 0.66 2 1 C2.12375 1.845625 2.2475 2.69125 2.375 3.5625 C3.04421702 7.24319363 4.28763495 9.8207434 6.0625 13.0703125 C7.01632239 15.03359691 7.54577087 16.87080096 8 19 C3.41581639 15.05250856 0.74981739 10.82921096 -1 5 C-0.75 1.9375 -0.75 1.9375 0 0 Z " fill="#5B7342" transform="translate(464,644)"/>
<path d="M0 0 C4.62 0 9.24 0 14 0 C14 0.66 14 1.32 14 2 C15.65 2.33 17.3 2.66 19 3 C19 3.66 19 4.32 19 5 C12.59406714 3.89309248 6.28636144 2.66054831 0 1 C0 0.67 0 0.34 0 0 Z " fill="#474A34" transform="translate(648,655)"/>
<path d="M0 0 C2.97 0.99 5.94 1.98 9 3 C8.34 3.66 7.68 4.32 7 5 C7.33 5.66 7.66 6.32 8 7 C5.15449988 6.33989524 2.47674001 5.48275034 -0.25 4.4375 C-0.95640625 4.16808594 -1.6628125 3.89867187 -2.390625 3.62109375 C-2.92171875 3.41613281 -3.4528125 3.21117187 -4 3 C-2.68 2.67 -1.36 2.34 0 2 C0 1.34 0 0.68 0 0 Z " fill="#393B2B" transform="translate(892,729)"/>
<path d="M0 0 C1.29608947 0.93137592 2.58671632 1.8703566 3.875 2.8125 C4.59429688 3.33457031 5.31359375 3.85664062 6.0546875 4.39453125 C8 6 8 6 10 9 C9.34 9.66 8.68 10.32 8 11 C1.29540481 5.9059081 1.29540481 5.9059081 0.0625 2.125 C0.041875 1.42375 0.02125 0.7225 0 0 Z " fill="#404134" transform="translate(1032,895)"/>
<path d="M0 0 C9.41002278 0.96355353 9.41002278 0.96355353 14 2 C13.01 3.485 13.01 3.485 12 5 C8.53058454 4.54177532 5.32604951 4.10868317 2 3 C2 2.34 2 1.68 2 1 C1.34 0.67 0.68 0.34 0 0 Z " fill="#474933" transform="translate(760,684)"/>
<path d="M0 0 C0.66 0 1.32 0 2 0 C2.11085938 0.72832031 2.22171875 1.45664062 2.3359375 2.20703125 C3.2254971 5.94841426 5.05594839 8.75218036 7.0390625 12.01171875 C7.35617187 12.66785156 7.67328125 13.32398438 8 14 C7.67 14.66 7.34 15.32 7 16 C5.84735447 14.25447936 4.70312673 12.50339804 3.5625 10.75 C2.92441406 9.77546875 2.28632812 8.8009375 1.62890625 7.796875 C0.24456366 5.41992226 -0.65855023 3.70676545 -1 1 C-0.67 0.67 -0.34 0.34 0 0 Z " fill="#4B4E3A" transform="translate(525,751)"/>
<path d="M0 0 C4.17148265 -0.19402245 7.28944583 -0.01430083 11 2 C11.33 2.99 11.66 3.98 12 5 C8.37 4.34 4.74 3.68 1 3 C0.67 2.01 0.34 1.02 0 0 Z " fill="#4A4C38" transform="translate(848,714)"/>
<path d="M0 0 C3.99455527 0.61454696 6.74466336 2.70646737 10 5 C5.82412255 6.39195915 3.86525224 4.82323219 0 3 C0 2.01 0 1.02 0 0 Z " fill="#434530" transform="translate(1076,822)"/>
<path d="M0 0 C3.79588866 0.54226981 5.47211993 2.20127563 8 5 C6.25 5.6875 6.25 5.6875 4 6 C1.75 4.75 1.75 4.75 0 3 C0 2.01 0 1.02 0 0 Z " fill="#404231" transform="translate(1087,829)"/>
<path d="M0 0 C0.66 0.33 1.32 0.66 2 1 C1.79375 1.61875 1.5875 2.2375 1.375 2.875 C1.25125 3.57625 1.1275 4.2775 1 5 C1.66 5.66 2.32 6.32 3 7 C3.33 7.66 3.66 8.32 4 9 C3.01 10.485 3.01 10.485 2 12 C-2.04893617 5.61985816 -2.04893617 5.61985816 -1.8125 2.625 C-1 1 -1 1 0 0 Z " fill="#606148" transform="translate(480,671)"/>
<path d="M0 0 C0 0.66 0 1.32 0 2 C-9.41002278 1.03644647 -9.41002278 1.03644647 -14 0 C-14 -0.33 -14 -0.66 -14 -1 C-8.65998179 -2.33500455 -5.16044765 -1.512545 0 0 Z " fill="#484A34" transform="translate(621,647)"/>
<path d="M0 0 C3.63 0.33 7.26 0.66 11 1 C11.33 1.99 11.66 2.98 12 4 C10.1858073 3.71905418 8.37364999 3.42493567 6.5625 3.125 C5.04849609 2.88136719 5.04849609 2.88136719 3.50390625 2.6328125 C2.67761719 2.42398438 1.85132813 2.21515625 1 2 C0.67 1.34 0.34 0.68 0 0 Z " fill="#63643F" transform="translate(586,639)"/>
<path d="M0 0 C3.43595166 1.52708963 6.11912454 3.59927045 9 6 C8.67 6.99 8.34 7.98 8 9 C6.66079162 7.88200014 5.32877444 6.75538103 4 5.625 C2.88625 4.68527344 2.88625 4.68527344 1.75 3.7265625 C1.1725 3.15679688 0.595 2.58703125 0 2 C0 1.34 0 0.68 0 0 Z " fill="#212C19" transform="translate(993,864)"/>
<path d="M0 0 C1.65 0.33 3.3 0.66 5 1 C4.67 1.66 4.34 2.32 4 3 C4.66 3.66 5.32 4.32 6 5 C0.06 4.01 0.06 4.01 -6 3 C-6 2.67 -6 2.34 -6 2 C-4.02 2 -2.04 2 0 2 C0 1.34 0 0.68 0 0 Z " fill="#3E532F" transform="translate(679,659)"/>
<path d="M0 0 C3.91402949 1.26941497 5.79072873 2.51167694 8 6 C5.125 5.8125 5.125 5.8125 2 5 C0.625 2.4375 0.625 2.4375 0 0 Z " fill="#434635" transform="translate(1138,863)"/>
<path d="M0 0 C0.66 0 1.32 0 2 0 C2.33 0.66 2.66 1.32 3 2 C5.02463255 2.65213292 5.02463255 2.65213292 7 3 C7 4.32 7 5.64 7 7 C5.68 7 4.36 7 3 7 C0 2.92857143 0 2.92857143 0 0 Z " fill="#4D513B" transform="translate(533,768)"/>
<path d="M0 0 C1.32 0.33 2.64 0.66 4 1 C4 1.66 4 2.32 4 3 C4.99 3.33 5.98 3.66 7 4 C6.01 4.99 5.02 5.98 4 7 C0 2.25 0 2.25 0 0 Z " fill="#2E3021" transform="translate(1067,926)"/>
<path d="M0 0 C2.5 1.25 2.5 1.25 5 3 C5 4.32 5 5.64 5 7 C2.11562221 5.70700306 0.12780579 4.34058637 -2 2 C-1.34 2 -0.68 2 0 2 C0 1.34 0 0.68 0 0 Z " fill="#333526" transform="translate(1134,859)"/>
<path d="M0 0 C1.98 0.66 3.96 1.32 6 2 C5.01 2.495 5.01 2.495 4 3 C4 3.66 4 4.32 4 5 C1.36 4.34 -1.28 3.68 -4 3 C-2.68 2.67 -1.36 2.34 0 2 C0 1.34 0 0.68 0 0 Z " fill="#3D3F2E" transform="translate(823,703)"/>
<path d="M0 0 C5.94 1.485 5.94 1.485 12 3 C12 3.33 12 3.66 12 4 C3.42857143 4.14285714 3.42857143 4.14285714 0 3 C0 2.01 0 1.02 0 0 Z " fill="#416D32" transform="translate(713,668)"/>
<path d="M0 0 C1.9375 0.8125 1.9375 0.8125 4 2 C4.33 2.99 4.66 3.98 5 5 C4.01 6.485 4.01 6.485 3 8 C0 2.25 0 2.25 0 0 Z " fill="#616F4B" transform="translate(450,625)"/>
<path d="M0 0 C3.3 0.33 6.6 0.66 10 1 C5.8204355 3.78637633 3.85331323 2.79562512 -1 2 C-0.67 1.34 -0.34 0.68 0 0 Z " fill="#626436" transform="translate(477,618)"/>
<path d="M0 0 C2.31 0 4.62 0 7 0 C7.33 1.65 7.66 3.3 8 5 C4.62496331 3.8141763 2.35277269 2.72426311 0 0 Z " fill="#383A28" transform="translate(1041,803)"/>
<path d="M0 0 C1.98 0.66 3.96 1.32 6 2 C6 2.99 6 3.98 6 5 C3.03 4.505 3.03 4.505 0 4 C0 2.68 0 1.36 0 0 Z " fill="#3C3E2C" transform="translate(910,737)"/>
<path d="M0 0 C1.65 0 3.3 0 5 0 C4.67 1.65 4.34 3.3 4 5 C3.01 5 2.02 5 1 5 C0.67 3.35 0.34 1.7 0 0 Z " fill="#5D6F45" transform="translate(459,640)"/>
<path d="M0 0 C1.98 0.99 1.98 0.99 4 2 C4 2.66 4 3.32 4 4 C4.66 4 5.32 4 6 4 C6 4.66 6 5.32 6 6 C4.125 5.8125 4.125 5.8125 2 5 C0.75 2.4375 0.75 2.4375 0 0 Z " fill="#31321E" transform="translate(1106,960)"/>
<path d="M0 0 C0 1.32 0 2.64 0 4 C-2.91517292 2.92598892 -4.77810176 2.22189824 -7 0 C-3.98968256 -0.93423645 -3.13349732 -1.04449911 0 0 Z " fill="#3C3D2A" transform="translate(991,773)"/>
<path d="M0 0 C4.95 0.99 4.95 0.99 10 2 C9.01 2.66 8.02 3.32 7 4 C3.3125 3.125 3.3125 3.125 0 2 C0 1.34 0 0.68 0 0 Z " fill="#737531" transform="translate(555,632)"/>
<path d="M0 0 C1.32 0.66 2.64 1.32 4 2 C4 2.99 4 3.98 4 5 C1.69 4.34 -0.62 3.68 -3 3 C-2.01 2.67 -1.02 2.34 0 2 C0 1.34 0 0.68 0 0 Z " fill="#373828" transform="translate(943,751)"/>
<path d="M0 0 C2.475 0.99 2.475 0.99 5 2 C4.67 3.32 4.34 4.64 4 6 C3.34 6 2.68 6 2 6 C1.34 4.02 0.68 2.04 0 0 Z " fill="#565942" transform="translate(500,712)"/>
<path d="M0 0 C0.66 0.33 1.32 0.66 2 1 C2 3.64 2 6.28 2 9 C0.4375 7.3125 0.4375 7.3125 -1 5 C-0.6875 2.25 -0.6875 2.25 0 0 Z " fill="#5F6A48" transform="translate(464,644)"/>
</svg>
